G04*
G04 #@! TF.GenerationSoftware,Altium Limited,Altium Designer,20.1.8 (145)*
G04*
G04 Layer_Physical_Order=1*
G04 Layer_Color=255*
%FSLAX25Y25*%
%MOIN*%
G70*
G04*
G04 #@! TF.SameCoordinates,D31548CD-FCFE-4AF2-970D-BF99D7539B14*
G04*
G04*
G04 #@! TF.FilePolarity,Positive*
G04*
G01*
G75*
%ADD12R,0.01968X0.03740*%
%ADD13R,0.01968X0.03543*%
%ADD19C,0.01000*%
%ADD20C,0.05906*%
%ADD21R,0.05906X0.05906*%
%ADD22C,0.11811*%
%ADD23C,0.02362*%
D12*
X24941Y4500D02*
D03*
X30059D02*
D03*
D13*
Y22500D02*
D03*
X24941D02*
D03*
X30059Y13500D02*
D03*
X24941D02*
D03*
D19*
X12500Y18752D02*
X13748D01*
X19500Y6000D02*
Y13000D01*
X13748Y18752D02*
X19500Y13000D01*
X23500Y24728D02*
Y27000D01*
X16367Y34133D02*
X23500Y27000D01*
X12500Y34500D02*
X12867Y34133D01*
X16367D01*
X23500Y24728D02*
X24941Y23287D01*
X19500Y19728D02*
Y24000D01*
X24457Y14772D02*
X24457D01*
X19500Y19728D02*
X24457Y14772D01*
X24941Y13500D02*
Y14287D01*
X24457Y14772D02*
X24941Y14287D01*
X39000Y9500D02*
Y16500D01*
X34000Y4500D02*
X39000Y9500D01*
X30059Y4500D02*
X34000D01*
X30000Y22559D02*
X30059Y22500D01*
X30000Y22559D02*
Y26500D01*
X21000Y4500D02*
X24941D01*
X19500Y6000D02*
X21000Y4500D01*
X12500Y26626D02*
X12579Y26547D01*
X16953D01*
X19500Y24000D01*
X24941Y22500D02*
Y23287D01*
X27500Y9500D02*
X29000D01*
X30059Y10559D01*
Y13500D01*
D20*
X12500Y10878D02*
D03*
Y26626D02*
D03*
Y18752D02*
D03*
D21*
Y34500D02*
D03*
D22*
X31000Y36000D02*
D03*
D23*
X39000Y16500D02*
D03*
X30000Y26500D02*
D03*
X27500Y9500D02*
D03*
M02*
