G04*
G04 #@! TF.GenerationSoftware,Altium Limited,Altium Designer,20.1.8 (145)*
G04*
G04 Layer_Physical_Order=2*
G04 Layer_Color=16711680*
%FSLAX25Y25*%
%MOIN*%
G70*
G04*
G04 #@! TF.SameCoordinates,D31548CD-FCFE-4AF2-970D-BF99D7539B14*
G04*
G04*
G04 #@! TF.FilePolarity,Positive*
G04*
G01*
G75*
%ADD19C,0.01000*%
%ADD20C,0.05906*%
%ADD21R,0.05906X0.05906*%
%ADD22C,0.11811*%
%ADD23C,0.02362*%
%ADD24R,0.03347X0.03150*%
G04:AMPARAMS|DCode=25|XSize=33.47mil|YSize=31.5mil|CornerRadius=7.87mil|HoleSize=0mil|Usage=FLASHONLY|Rotation=180.000|XOffset=0mil|YOffset=0mil|HoleType=Round|Shape=RoundedRectangle|*
%AMROUNDEDRECTD25*
21,1,0.03347,0.01575,0,0,180.0*
21,1,0.01772,0.03150,0,0,180.0*
1,1,0.01575,-0.00886,0.00787*
1,1,0.01575,0.00886,0.00787*
1,1,0.01575,0.00886,-0.00787*
1,1,0.01575,-0.00886,-0.00787*
%
%ADD25ROUNDEDRECTD25*%
D19*
X35000Y16587D02*
X35043Y16543D01*
X38957D01*
X39000Y16500D01*
X35000Y5500D02*
Y9500D01*
X19878Y3500D02*
X33000D01*
X35000Y5500D01*
X12500Y10878D02*
X19878Y3500D01*
X24173Y16587D02*
Y20673D01*
X30000Y26500D01*
X24173Y9500D02*
X27500D01*
X21087Y16587D02*
X24173D01*
D20*
X12500Y10878D02*
D03*
Y26626D02*
D03*
Y18752D02*
D03*
D21*
Y34500D02*
D03*
D22*
X31000Y36000D02*
D03*
D23*
X39000Y16500D02*
D03*
X30000Y26500D02*
D03*
X27500Y9500D02*
D03*
D24*
X24173D02*
D03*
Y16587D02*
D03*
X35000Y9500D02*
D03*
D25*
Y16587D02*
D03*
M02*
